<mxfile host="app.diagrams.net" modified="2024-05-18T11:53:29.988Z" agent="Mozilla/5.0 (Windows NT 10.0; Win64; x64) AppleWebKit/537.36 (KHTML, like Gecko) Chrome/124.0.0.0 Safari/537.36 Edg/124.0.0.0" etag="BbGhy7rONfi5JXMDqB5_" version="24.4.0" type="github">
  <diagram name="第 1 页" id="l2cGgNGK3y46xD8UlBKp">
    <mxGraphModel dx="1042" dy="569" grid="1" gridSize="10" guides="1" tooltips="1" connect="1" arrows="1" fold="1" page="1" pageScale="1" pageWidth="827" pageHeight="1169" math="0" shadow="0">
      <root>
        <mxCell id="0" />
        <mxCell id="1" parent="0" />
        <mxCell id="rgp5qPSZ7Ryyr3Vv0dhp-29" style="edgeStyle=orthogonalEdgeStyle;rounded=0;orthogonalLoop=1;jettySize=auto;html=1;endArrow=none;endFill=0;" edge="1" parent="1" source="rgp5qPSZ7Ryyr3Vv0dhp-5" target="rgp5qPSZ7Ryyr3Vv0dhp-17">
          <mxGeometry relative="1" as="geometry">
            <Array as="points">
              <mxPoint x="320" y="132" />
            </Array>
          </mxGeometry>
        </mxCell>
        <mxCell id="rgp5qPSZ7Ryyr3Vv0dhp-5" value="物理内存回收" style="swimlane;fontStyle=0;childLayout=stackLayout;horizontal=1;startSize=26;fillColor=none;horizontalStack=0;resizeParent=1;resizeParentMax=0;resizeLast=0;collapsible=1;marginBottom=0;whiteSpace=wrap;html=1;" vertex="1" parent="1">
          <mxGeometry x="100" y="80" width="140" height="104" as="geometry" />
        </mxCell>
        <mxCell id="rgp5qPSZ7Ryyr3Vv0dhp-6" value="Compact" style="text;strokeColor=none;fillColor=none;align=center;verticalAlign=top;spacingLeft=4;spacingRight=4;overflow=hidden;rotatable=0;points=[[0,0.5],[1,0.5]];portConstraint=eastwest;whiteSpace=wrap;html=1;" vertex="1" parent="rgp5qPSZ7Ryyr3Vv0dhp-5">
          <mxGeometry y="26" width="140" height="26" as="geometry" />
        </mxCell>
        <mxCell id="rgp5qPSZ7Ryyr3Vv0dhp-7" value="PFRA" style="text;strokeColor=none;fillColor=none;align=center;verticalAlign=top;spacingLeft=4;spacingRight=4;overflow=hidden;rotatable=0;points=[[0,0.5],[1,0.5]];portConstraint=eastwest;whiteSpace=wrap;html=1;" vertex="1" parent="rgp5qPSZ7Ryyr3Vv0dhp-5">
          <mxGeometry y="52" width="140" height="26" as="geometry" />
        </mxCell>
        <mxCell id="rgp5qPSZ7Ryyr3Vv0dhp-8" value="OOM Killer" style="text;strokeColor=none;fillColor=none;align=center;verticalAlign=top;spacingLeft=4;spacingRight=4;overflow=hidden;rotatable=0;points=[[0,0.5],[1,0.5]];portConstraint=eastwest;whiteSpace=wrap;html=1;" vertex="1" parent="rgp5qPSZ7Ryyr3Vv0dhp-5">
          <mxGeometry y="78" width="140" height="26" as="geometry" />
        </mxCell>
        <mxCell id="rgp5qPSZ7Ryyr3Vv0dhp-30" style="edgeStyle=orthogonalEdgeStyle;rounded=0;orthogonalLoop=1;jettySize=auto;html=1;endArrow=none;endFill=0;" edge="1" parent="1" source="rgp5qPSZ7Ryyr3Vv0dhp-9" target="rgp5qPSZ7Ryyr3Vv0dhp-17">
          <mxGeometry relative="1" as="geometry">
            <Array as="points">
              <mxPoint x="290" y="252" />
              <mxPoint x="290" y="252" />
            </Array>
          </mxGeometry>
        </mxCell>
        <mxCell id="rgp5qPSZ7Ryyr3Vv0dhp-9" value="物理内存分配" style="swimlane;fontStyle=0;childLayout=stackLayout;horizontal=1;startSize=26;fillColor=none;horizontalStack=0;resizeParent=1;resizeParentMax=0;resizeLast=0;collapsible=1;marginBottom=0;whiteSpace=wrap;html=1;" vertex="1" parent="1">
          <mxGeometry x="100" y="200" width="140" height="104" as="geometry" />
        </mxCell>
        <mxCell id="rgp5qPSZ7Ryyr3Vv0dhp-10" value="Buddy System" style="text;strokeColor=none;fillColor=none;align=center;verticalAlign=top;spacingLeft=4;spacingRight=4;overflow=hidden;rotatable=0;points=[[0,0.5],[1,0.5]];portConstraint=eastwest;whiteSpace=wrap;html=1;" vertex="1" parent="rgp5qPSZ7Ryyr3Vv0dhp-9">
          <mxGeometry y="26" width="140" height="26" as="geometry" />
        </mxCell>
        <mxCell id="rgp5qPSZ7Ryyr3Vv0dhp-11" value="Slab Allocator" style="text;strokeColor=none;fillColor=none;align=center;verticalAlign=top;spacingLeft=4;spacingRight=4;overflow=hidden;rotatable=0;points=[[0,0.5],[1,0.5]];portConstraint=eastwest;whiteSpace=wrap;html=1;" vertex="1" parent="rgp5qPSZ7Ryyr3Vv0dhp-9">
          <mxGeometry y="52" width="140" height="26" as="geometry" />
        </mxCell>
        <mxCell id="rgp5qPSZ7Ryyr3Vv0dhp-12" value="Kmalloc" style="text;strokeColor=none;fillColor=none;align=center;verticalAlign=top;spacingLeft=4;spacingRight=4;overflow=hidden;rotatable=0;points=[[0,0.5],[1,0.5]];portConstraint=eastwest;whiteSpace=wrap;html=1;" vertex="1" parent="rgp5qPSZ7Ryyr3Vv0dhp-9">
          <mxGeometry y="78" width="140" height="26" as="geometry" />
        </mxCell>
        <mxCell id="rgp5qPSZ7Ryyr3Vv0dhp-31" style="edgeStyle=orthogonalEdgeStyle;rounded=0;orthogonalLoop=1;jettySize=auto;html=1;endArrow=none;endFill=0;" edge="1" parent="1" source="rgp5qPSZ7Ryyr3Vv0dhp-13" target="rgp5qPSZ7Ryyr3Vv0dhp-17">
          <mxGeometry relative="1" as="geometry">
            <Array as="points">
              <mxPoint x="320" y="372" />
              <mxPoint x="320" y="252" />
            </Array>
          </mxGeometry>
        </mxCell>
        <mxCell id="rgp5qPSZ7Ryyr3Vv0dhp-13" value="物理内存区划" style="swimlane;fontStyle=0;childLayout=stackLayout;horizontal=1;startSize=26;fillColor=none;horizontalStack=0;resizeParent=1;resizeParentMax=0;resizeLast=0;collapsible=1;marginBottom=0;whiteSpace=wrap;html=1;" vertex="1" parent="1">
          <mxGeometry x="100" y="320" width="140" height="104" as="geometry" />
        </mxCell>
        <mxCell id="rgp5qPSZ7Ryyr3Vv0dhp-14" value="Node" style="text;strokeColor=none;fillColor=none;align=center;verticalAlign=top;spacingLeft=4;spacingRight=4;overflow=hidden;rotatable=0;points=[[0,0.5],[1,0.5]];portConstraint=eastwest;whiteSpace=wrap;html=1;" vertex="1" parent="rgp5qPSZ7Ryyr3Vv0dhp-13">
          <mxGeometry y="26" width="140" height="26" as="geometry" />
        </mxCell>
        <mxCell id="rgp5qPSZ7Ryyr3Vv0dhp-15" value="Zone" style="text;strokeColor=none;fillColor=none;align=center;verticalAlign=top;spacingLeft=4;spacingRight=4;overflow=hidden;rotatable=0;points=[[0,0.5],[1,0.5]];portConstraint=eastwest;whiteSpace=wrap;html=1;" vertex="1" parent="rgp5qPSZ7Ryyr3Vv0dhp-13">
          <mxGeometry y="52" width="140" height="26" as="geometry" />
        </mxCell>
        <mxCell id="rgp5qPSZ7Ryyr3Vv0dhp-16" value="Page" style="text;strokeColor=none;fillColor=none;align=center;verticalAlign=top;spacingLeft=4;spacingRight=4;overflow=hidden;rotatable=0;points=[[0,0.5],[1,0.5]];portConstraint=eastwest;whiteSpace=wrap;html=1;" vertex="1" parent="rgp5qPSZ7Ryyr3Vv0dhp-13">
          <mxGeometry y="78" width="140" height="26" as="geometry" />
        </mxCell>
        <mxCell id="rgp5qPSZ7Ryyr3Vv0dhp-32" style="edgeStyle=orthogonalEdgeStyle;rounded=0;orthogonalLoop=1;jettySize=auto;html=1;endArrow=none;endFill=0;" edge="1" parent="1" source="rgp5qPSZ7Ryyr3Vv0dhp-17" target="rgp5qPSZ7Ryyr3Vv0dhp-21">
          <mxGeometry relative="1" as="geometry" />
        </mxCell>
        <mxCell id="rgp5qPSZ7Ryyr3Vv0dhp-33" style="edgeStyle=orthogonalEdgeStyle;rounded=0;orthogonalLoop=1;jettySize=auto;html=1;endArrow=none;endFill=0;" edge="1" parent="1" source="rgp5qPSZ7Ryyr3Vv0dhp-17" target="rgp5qPSZ7Ryyr3Vv0dhp-25">
          <mxGeometry relative="1" as="geometry" />
        </mxCell>
        <mxCell id="rgp5qPSZ7Ryyr3Vv0dhp-17" value="虚拟内存映射" style="swimlane;fontStyle=0;childLayout=stackLayout;horizontal=1;startSize=26;fillColor=none;horizontalStack=0;resizeParent=1;resizeParentMax=0;resizeLast=0;collapsible=1;marginBottom=0;whiteSpace=wrap;html=1;" vertex="1" parent="1">
          <mxGeometry x="350" y="226" width="140" height="52" as="geometry" />
        </mxCell>
        <mxCell id="rgp5qPSZ7Ryyr3Vv0dhp-18" value="页表" style="text;strokeColor=none;fillColor=none;align=center;verticalAlign=top;spacingLeft=4;spacingRight=4;overflow=hidden;rotatable=0;points=[[0,0.5],[1,0.5]];portConstraint=eastwest;whiteSpace=wrap;html=1;" vertex="1" parent="rgp5qPSZ7Ryyr3Vv0dhp-17">
          <mxGeometry y="26" width="140" height="26" as="geometry" />
        </mxCell>
        <mxCell id="rgp5qPSZ7Ryyr3Vv0dhp-21" value="内核空间" style="swimlane;fontStyle=0;childLayout=stackLayout;horizontal=1;startSize=26;fillColor=none;horizontalStack=0;resizeParent=1;resizeParentMax=0;resizeLast=0;collapsible=1;marginBottom=0;whiteSpace=wrap;html=1;" vertex="1" parent="1">
          <mxGeometry x="560" y="184" width="140" height="52" as="geometry" />
        </mxCell>
        <mxCell id="rgp5qPSZ7Ryyr3Vv0dhp-25" value="用户空间" style="swimlane;fontStyle=0;childLayout=stackLayout;horizontal=1;startSize=26;fillColor=none;horizontalStack=0;resizeParent=1;resizeParentMax=0;resizeLast=0;collapsible=1;marginBottom=0;whiteSpace=wrap;html=1;" vertex="1" parent="1">
          <mxGeometry x="560" y="268" width="140" height="52" as="geometry" />
        </mxCell>
      </root>
    </mxGraphModel>
  </diagram>
</mxfile>
